<svg xmlns="http://www.w3.org/2000/svg" viewBox="0 0 1024 1024" fill="none">
  <path fill="currentColor" fill-rule="evenodd" d="M568.00,709.50 L531.00,686.50 L525.50,681.00 L527.00,679.50 L517.00,674.50 L486.50,642.00 L456.50,600.00 L453.50,595.00 L455.50,594.00 L448.50,587.00 L425.00,542.50 L423.50,565.00 L442.50,592.00 L380.00,648.50 L359.50,661.00 L410.50,499.00 L410.50,496.00 L360.50,447.00 L372.00,430.50 L380.00,439.50 L425.00,468.50 L465.50,353.00 L465.00,350.50 L447.00,355.50 L416.50,368.00 L425.50,426.00 L419.00,458.50 L405.50,426.00 L376.50,326.00 L395.00,315.50 L408.00,352.50 L447.00,334.50 L476.00,327.50 L496.00,326.50 L448.50,284.00 L469.00,274.50 L480.00,280.50 L511.00,312.50 L588.00,285.50 L556.50,241.00 L550.00,235.50 L552.00,244.50 L487.00,259.50 L433.00,277.50 L397.00,295.50 L325.50,343.00 L342.50,363.00 L364.50,401.00 L345.50,451.00 L303.50,544.00 L355.50,527.00 L368.50,613.00 L358.00,655.50 L334.50,570.00 L277.50,558.00 L309.50,448.00 L319.50,397.00 L256.50,348.00 L296.00,316.50 L367.00,277.50 L433.00,249.50 L490.00,231.50 L433.00,222.50 L425.50,219.00 L428.00,212.50 L442.00,206.50 L497.00,208.50 L520.00,178.50 L559.00,208.50 L581.50,231.00 L614.00,277.50 L642.50,273.00 L617.50,287.00 L660.50,356.00 L686.50,410.00 L691.50,425.00 L694.00,491.50 L727.50,426.00 L693.50,330.00 L675.50,293.00 L650.50,260.00 L620.00,231.50 L584.00,208.50 L615.00,216.50 L661.00,234.50 L688.00,248.50 L696.50,257.00 L710.50,290.00 L713.50,301.00 L711.50,303.00 L715.50,306.00 L718.50,322.00 L707.50,316.00 L775.50,432.00 L769.50,446.00 L710.50,529.00 L676.00,590.50 L668.50,465.00 L653.50,376.00 L650.00,373.50 L605.00,398.50 L594.50,482.00 L660.00,473.50 L659.50,497.00 L644.00,500.50 L596.50,502.00 L608.50,544.00 L628.50,586.00 L627.00,588.50 L536.00,611.50 L523.00,604.50 L518.50,598.00 L601.50,578.00 L590.50,546.00 L582.50,501.00 L534.00,502.50 L477.00,573.50 L464.50,558.00 L504.50,502.00 L451.00,500.50 L449.50,474.00 L567.50,466.00 L580.50,390.00 L525.00,352.50 L520.50,349.00 L522.00,347.50 L553.00,336.50 L596.00,370.50 L638.50,353.00 L598.00,299.50 L496.50,351.00 L455.50,432.00 L439.50,472.00 L426.50,516.00 L431.50,530.00 L490.00,598.50 L552.00,649.50 L620.00,630.50 L681.50,618.00 L673.00,628.50 L648.00,646.50 L602.00,664.50 L568.00,709.50 Z M402.00,210.50 L398.50,207.00 L402.00,202.50 L417.00,196.50 L432.50,195.00 L402.00,210.50 Z M425.00,211.50 L408.50,210.00 L425.00,211.50 Z M359.00,239.50 L352.50,236.00 L379.50,222.00 L375.00,228.50 L359.00,239.50 Z M316.00,282.50 L312.50,280.00 L313.50,274.00 L334.00,260.50 L334.50,265.00 L316.00,282.50 Z M670.00,300.50 L657.00,283.50 L666.50,286.00 L670.00,300.50 Z M762.00,399.50 L755.50,389.00 L754.50,375.00 L747.00,353.50 L755.50,365.00 L763.50,384.00 L765.50,396.00 L762.00,399.50 Z M275.00,456.50 L269.50,454.00 L268.50,438.00 L271.50,418.00 L274.00,414.50 L279.00,414.50 L275.00,456.50 Z M665.00,539.50 L667.00,532.50 L665.00,539.50 Z M735.00,573.50 L727.50,565.00 L733.50,551.00 L732.50,539.00 L737.00,535.50 L741.50,543.00 L741.50,556.00 L735.00,573.50 Z M648.00,577.50 L642.50,576.00 L662.50,541.00 L666.00,539.50 L662.50,553.00 L648.00,577.50 Z M453.00,607.50 L439.50,599.00 L444.00,595.50 L453.00,607.50 Z M488.00,703.50 L458.00,693.50 L453.50,695.00 L456.00,699.50 L439.00,693.50 L421.00,684.50 L407.50,670.00 L410.00,668.50 L436.00,679.50 L475.00,690.50 L485.50,698.00 L488.00,703.50 Z" clip-rule="evenodd"/>
</svg>
